<svg width="200" height="31" viewBox="0 0 200 31" fill="none" xmlns="http://www.w3.org/2000/svg">
<path d="M40.1237 30.7878C39.9964 30.9048 39.6876 30.9622 39.1936 30.9622H33.0453C32.3822 30.9622 32.1152 30.6727 32.2525 30.0948L37.219 8.87468C37.4633 7.83496 37.8451 6.81767 38.3685 5.82029C38.8896 4.82548 39.5627 3.94548 40.393 3.18012C41.2209 2.4146 42.2231 1.79876 43.4023 1.33761C44.5767 0.876078 45.9304 0.644167 47.4589 0.644167H60.6282C60.9747 0.644167 61.1867 0.69672 61.264 0.799147C61.3388 0.898727 61.3214 1.1929 61.2067 1.68411L60.0624 6.57823C59.9724 6.9548 59.8578 7.20645 59.7107 7.33611C59.5636 7.46581 59.3317 7.53075 59.0151 7.53075H48.319C47.7405 7.53075 47.2595 7.61047 46.8779 7.77003C46.4915 7.92712 46.1849 8.12171 45.9605 8.35362C45.7334 8.58525 45.5541 8.84461 45.4294 9.13399C45.3048 9.42297 45.2076 9.71234 45.1402 9.99915L44.5141 12.6842L55.9036 12.6842C56.2501 12.6842 56.4597 12.7441 56.5343 12.8563C56.6092 12.9735 56.5865 13.2778 56.472 13.7663L55.4174 18.2714C55.2627 18.935 54.9112 19.2691 54.3627 19.2691L42.9734 19.2691L40.4379 30.0948C40.3555 30.4413 40.2509 30.6727 40.1237 30.7878Z" fill="white"/>
<path d="M46.4736 30.0919C46.4736 30.0793 46.4777 30.0668 46.4819 30.05L49.5823 17.0584L52.6828 4.06676L52.7079 3.96634L53.2853 1.5563C53.3648 1.20902 53.4736 0.970528 53.6033 0.84082C53.7413 0.711113 54.0468 0.644167 54.5405 0.644167H60.6869C61.3313 0.644167 61.5949 0.924503 61.4819 1.49772C61.4777 1.51446 61.4735 1.53538 61.4694 1.5563L58.3899 14.4601H58.3857L55.2643 27.5396L54.666 30.05C54.5823 30.3973 54.4777 30.6358 54.3438 30.7655C54.21 30.8952 53.9003 30.9622 53.4108 30.9622H47.2602C46.6158 30.9622 46.348 30.6693 46.4736 30.0919Z" fill="white"/>
<mask id="mask0_314_331" style="mask-type:alpha" maskUnits="userSpaceOnUse" x="59" y="0" width="28" height="31">
<path d="M86.1924 30.9624L59.4141 30.9624V5.91278e-05L86.1924 5.91278e-05V30.9624Z" fill="white"/>
</mask>
<g mask="url(#mask0_314_331)">
<path d="M59.454 30.8241C59.5252 30.9176 59.7163 30.9624 60.0236 30.9624L71.8213 30.9624C73.1892 30.9624 74.4035 30.7568 75.4528 30.3457C76.5097 29.9308 77.4091 29.3814 78.1512 28.6974C78.8932 28.0134 79.4966 27.2285 79.9613 26.339C80.4297 25.4494 80.7745 24.5412 80.9919 23.6105L81.6852 19.331C81.6852 19.3272 81.689 19.3198 81.689 19.3123C81.8014 18.6694 81.8576 18.0191 81.8576 17.3612C81.8576 17.0174 81.8239 16.6885 81.7639 16.3708C81.6702 15.8774 81.5053 15.414 81.2692 14.9804C81.168 14.7935 81.0481 14.6141 80.9095 14.4459C80.5309 13.9787 80.0213 13.5825 79.3841 13.2574C78.6683 12.8985 77.7164 12.6855 76.5247 12.6257C76.4872 12.622 76.446 12.622 76.4047 12.622C76.2511 12.6145 76.0937 12.6107 75.9325 12.607C75.8763 12.6033 75.8163 12.6033 75.7564 12.6033H72.6454C71.5301 12.6033 70.7326 11.5272 71.0602 10.4635L71.7089 8.35735C71.7689 8.09945 71.855 7.84156 71.9675 7.58367C72.0687 7.3482 72.2148 7.13515 72.3947 6.94453C72.4097 6.92585 72.4247 6.90716 72.4434 6.88847C72.5184 6.81372 72.6008 6.7427 72.6908 6.67916C72.8519 6.55956 73.0431 6.45491 73.2642 6.36521C73.549 6.24934 73.8938 6.17833 74.2948 6.15964C74.381 6.1559 74.4672 6.15216 74.5571 6.15216H84.1362C84.421 6.15216 84.6272 6.09236 84.7583 5.97649C84.8932 5.86063 84.9944 5.63637 85.0731 5.29999L86.1 0.930723C86.115 0.859709 86.13 0.792433 86.145 0.728893V0.721418C86.2049 0.403721 86.2087 0.213104 86.1525 0.138351C86.0813 0.0486488 85.8939 5.91278e-05 85.5828 5.91278e-05H73.7851C72.4172 5.91278e-05 71.203 0.205627 70.1536 0.620502C69.4378 0.900824 68.7932 1.24094 68.2198 1.64834C68.2123 1.65208 68.2048 1.65956 68.1973 1.66329C67.935 1.85017 67.6876 2.05201 67.4553 2.26505C66.9193 2.75841 66.4584 3.3041 66.0649 3.90586C66.0499 3.92828 66.0349 3.95071 66.0199 3.97687C65.2067 5.31867 63.7675 9.09366 63.4452 11.8034C63.4078 12.1174 63.3703 12.4201 63.3328 12.7079C63.2354 13.5713 63.1829 14.3188 63.359 14.9767C63.5239 15.5934 63.7825 16.1316 64.1423 16.595C64.2885 16.7931 64.4534 16.9763 64.637 17.1445C64.6707 17.1744 64.7007 17.2043 64.7344 17.2304C64.978 17.4435 65.2441 17.6304 65.5402 17.7948C65.9674 18.0415 66.4471 18.2358 66.9831 18.3816C67.6363 18.5565 68.3442 18.6765 69.1031 18.7322C69.1084 18.7326 69.1136 18.7326 69.1192 18.7329L69.8276 18.7367L72.1699 18.7928C72.5071 18.7928 72.8145 18.8114 73.088 18.8488C73.3616 18.8899 73.5865 18.9796 73.7626 19.1217C73.9388 19.2637 74.0474 19.473 74.0962 19.7571C74.1486 20.0411 74.1149 20.4298 73.9987 20.9194L74.0737 21.9436L74.0699 21.9548H74.0512L73.8975 22.6088C73.8376 22.863 73.7514 23.1209 73.6389 23.3788C73.5265 23.6367 73.3654 23.8684 73.163 24.0777C72.9606 24.2833 72.687 24.459 72.3422 24.5973C71.9975 24.7393 71.5665 24.8103 71.0493 24.8103L61.4702 24.8103C61.1854 24.8103 60.9793 24.8701 60.8481 24.986C60.7132 25.1018 60.612 25.3261 60.5333 25.6625L60.2485 26.8809L59.5064 30.0355C59.4052 30.4728 59.3865 30.7381 59.454 30.8241Z" fill="white"/>
</g>
<path d="M133.762 21.089C133.959 20.2516 133.867 19.5658 133.491 19.0322C133.114 18.499 132.451 18.2292 131.503 18.2292H126.422L125.093 23.9039H130.174C130.75 23.9039 131.244 23.8167 131.66 23.6446C132.072 23.4702 132.426 23.2382 132.725 22.9516C133.022 22.6624 133.249 22.3604 133.413 22.0418C133.57 21.7225 133.69 21.4059 133.762 21.089ZM127.92 11.8216L132.441 11.8216C133.011 11.8216 133.58 11.6748 134.136 11.3878C134.687 11.0986 135.064 10.5353 135.26 9.69758C135.415 9.03426 135.338 8.5282 135.034 8.18171C134.727 7.83482 134.243 7.66304 133.585 7.66304L128.895 7.66304L127.92 11.8216ZM139.309 14.4198C140.035 14.7639 140.621 15.2051 141.057 15.7386C141.493 16.2745 141.818 16.8655 142.03 17.5162C142.237 18.1645 142.336 18.8455 142.329 19.5509C142.324 20.2592 142.242 20.9569 142.077 21.6499C141.753 23.0366 141.189 24.3005 140.389 25.4425C139.589 26.5818 138.614 27.5639 137.467 28.3872C136.325 29.2097 135.056 29.8455 133.667 30.2917C132.276 30.7405 130.83 30.9624 129.329 30.9624H118.07C116.885 30.9624 116.172 30.7405 115.93 30.2917C115.691 29.8455 115.688 29.1151 115.923 28.1048L121.683 3.50427C121.904 2.55192 122.245 1.83867 122.705 1.36274C123.161 0.883741 123.984 0.64469 125.165 0.64469L136.427 0.64469C137.724 0.64469 138.906 0.79158 139.963 1.07811C141.023 1.36754 141.895 1.83102 142.583 2.46455C143.271 3.1026 143.747 3.91069 144.009 4.89044C144.269 5.87286 144.239 7.05724 143.912 8.44106C143.651 9.56793 143.092 10.6573 142.237 11.7121C141.387 12.7668 140.429 13.582 139.372 14.1604L139.309 14.4198Z" fill="white"/>
<path d="M165.163 30.9612L151.779 30.9612C150.043 30.9612 148.697 30.7145 147.73 30.2257C146.763 29.7321 146.059 29.0936 145.626 28.2981C145.189 27.5027 144.972 26.6151 144.97 25.633C144.967 24.6506 145.082 23.683 145.304 22.7307L148.548 8.87348C148.792 7.83354 149.173 6.81652 149.696 5.81931C150.218 4.8245 150.894 3.94428 151.721 3.17875C152.549 2.4134 153.554 1.79756 154.731 1.33619C155.905 0.874878 157.259 0.642967 158.79 0.642967L171.565 0.642967C171.915 0.642967 172.124 0.695297 172.201 0.797724C172.281 0.897528 172.258 1.1941 172.147 1.68269L171.005 6.57943C170.915 6.9536 170.795 7.20548 170.648 7.33496C170.503 7.46461 170.271 7.52933 169.955 7.52933H159.647C159.069 7.52933 158.585 7.60933 158.206 7.76883C157.82 7.92592 157.516 8.12057 157.289 8.35482C157.06 8.58405 156.885 8.84341 156.758 9.13279C156.633 9.42177 156.538 9.71092 156.469 9.99795L156.042 11.8178L167.654 11.8178C168 11.8178 168.209 11.8777 168.284 11.99C168.356 12.1072 168.336 12.4114 168.22 12.9024L167.167 17.4053C167.01 18.0682 166.659 18.4001 166.11 18.4001H154.501L153.743 21.6489C153.614 22.1996 153.576 22.6337 153.634 22.9504C153.689 23.267 153.811 23.5039 154.008 23.6634C154.202 23.8203 154.454 23.9227 154.759 23.9674C155.067 24.0101 155.409 24.0295 155.784 24.0295L166.785 24.0295C167.132 24.0295 167.342 24.0825 167.421 24.1844C167.499 24.284 167.481 24.5808 167.367 25.0696L166.22 29.9664C166.065 30.6292 165.709 30.9612 165.163 30.9612Z" fill="white"/>
<path d="M197.581 7.52958H190.176L184.903 30.0514C184.823 30.3979 184.716 30.6369 184.586 30.7666C184.449 30.8962 184.14 30.9609 183.649 30.9609H177.498C176.835 30.9609 176.575 30.6569 176.72 30.0514L181.99 7.52958H174.755C174.149 7.52958 173.922 7.19809 174.079 6.53477L175.212 1.68295C175.329 1.19173 175.461 0.897787 175.618 0.795361C175.77 0.693157 176.022 0.643227 176.366 0.643227L199.194 0.643227C199.538 0.643227 199.765 0.693157 199.87 0.795361C199.977 0.897787 199.972 1.19173 199.857 1.68295L198.723 6.53477C198.566 7.19809 198.187 7.52958 197.581 7.52958Z" fill="white"/>
<path d="M11.9239 14.5484L8.22178 30.0513C8.14201 30.3978 8.03434 30.6369 7.90212 30.7665C7.76767 30.8962 7.4586 30.9612 6.96767 30.9612H0.819272C0.153164 30.9612 -0.105693 30.6598 0.0387983 30.0513L6.24187 4.06896C6.56599 2.71281 7.00505 1.80018 7.56572 1.33904C8.11969 0.877892 9.00672 0.645813 10.2184 0.645813H12.47C12.9041 0.645813 13.2756 0.668295 13.5819 0.710527C13.8887 0.755436 14.1632 0.840235 14.4048 0.972507C14.6491 1.10216 14.8712 1.29652 15.0681 1.55588C15.2678 1.81758 15.472 2.16408 15.6862 2.59555L19.6678 11.8632L21.785 17.146H22.089L25.809 1.55588C25.8915 1.20938 25.9986 0.972507 26.1308 0.840235C26.2631 0.710527 26.5744 0.645813 27.0631 0.645813H33.2143C33.877 0.645813 34.1392 0.950026 33.9919 1.55588L27.7911 27.5402C27.5568 28.5205 27.1607 29.3383 26.6017 29.9866C26.0433 30.6369 25.1133 30.9612 23.8145 30.9612H21.5629C21.1568 30.9612 20.7953 30.9415 20.4734 30.8962C20.1493 30.8543 19.8675 30.7665 19.626 30.6369C19.3816 30.5075 19.1523 30.3106 18.9426 30.0513C18.7306 29.792 18.5314 29.4455 18.344 29.0118L14.4098 19.9184L12.2279 14.5484H11.9239Z" fill="white"/>
<path d="M98.7081 1.5563C98.7122 1.53538 98.7164 1.51446 98.7206 1.49772C98.8336 0.924503 98.57 0.644167 97.9256 0.644167H91.7792C91.2855 0.644167 90.98 0.711113 90.8419 0.84082C90.7122 0.970528 90.6035 1.20902 90.524 1.5563L89.9466 3.96634L89.9214 4.06676L86.821 17.0584L83.7206 30.05C83.7164 30.0668 83.7122 30.0793 83.7122 30.0919C83.5867 30.6693 83.8545 30.9622 84.4989 30.9622H90.6495C91.139 30.9622 91.4486 30.8952 91.5825 30.7655C91.7164 30.6358 91.821 30.3973 91.9047 30.05L92.503 27.5396L94.4612 19.3333H103.851L101.294 30.05C101.292 30.0584 101.29 30.0657 101.288 30.0725L101.285 30.0919C101.16 30.6693 101.428 30.9622 102.072 30.9622H108.223C108.712 30.9622 109.022 30.8952 109.156 30.7655C109.29 30.6358 109.394 30.3973 109.478 30.05L110.076 27.5396L113.198 14.4601H113.202L116.281 1.5563C116.285 1.53538 116.29 1.51446 116.294 1.49772C116.407 0.924503 116.143 0.644167 115.499 0.644167H109.352C108.859 0.644167 108.553 0.711113 108.415 0.84082C108.285 0.970528 108.177 1.20902 108.097 1.5563L107.52 3.96634L107.495 4.06676L105.449 12.6387L96.0629 12.6387L98.7081 1.5563Z" fill="white"/>
</svg>
