<svg width="170" height="30" viewBox="0 0 170 30" fill="none" xmlns="http://www.w3.org/2000/svg">
<path fill-rule="evenodd" clip-rule="evenodd" d="M57.7908 17.9428H59.6643C60.1292 17.9428 60.4694 17.8283 60.6882 17.5992C60.9053 17.3684 61.013 17.112 61.013 16.8231C61.013 16.536 60.9087 16.2693 60.6968 16.0283C60.4865 15.7873 60.0985 15.6659 59.5361 15.6659H57.7908V17.9428ZM57.7908 13.0026H59.572C60.0181 13.0026 60.3344 12.8898 60.5173 12.6642C60.7019 12.4368 60.7925 12.1958 60.7925 11.9377C60.7925 11.2402 60.3651 10.8915 59.507 10.8915H57.7908V13.0026ZM54.2472 20.7343V8.20264H60.6096C61.931 8.20264 62.8951 8.53597 63.5019 9.20264C64.107 9.8693 64.4113 10.6317 64.4113 11.4898C64.4113 12.1137 64.2352 12.6779 63.8831 13.1821C63.531 13.6881 63.0062 14.0351 62.3087 14.2249C63.9292 14.6163 64.7412 15.589 64.7412 17.1445C64.7412 18.0744 64.454 18.9052 63.8831 19.6368C63.3104 20.3684 62.0882 20.7343 60.2147 20.7343H54.2472Z" fill="#FEFEFE"/>
<path fill-rule="evenodd" clip-rule="evenodd" d="M65.5691 17.1081L69.14 16.4653C69.4409 17.4756 70.2118 17.9799 71.4545 17.9799C72.4221 17.9799 72.9058 17.7217 72.9058 17.2089C72.9058 16.9388 72.793 16.7286 72.5708 16.5781C72.3469 16.4311 71.9469 16.2961 71.3725 16.1816C69.1742 15.7593 67.7622 15.2106 67.1383 14.5286C66.5144 13.8499 66.2033 13.0516 66.2033 12.132C66.2033 10.9508 66.6511 9.96789 67.5469 9.18498C68.4443 8.40036 69.7349 8.00891 71.4169 8.00891C73.9708 8.00891 75.6563 9.03284 76.4768 11.0858L73.2904 12.0482C72.9605 11.2106 72.2904 10.7918 71.2802 10.7918C70.4409 10.7918 70.0221 11.0516 70.0221 11.5713C70.0221 11.8038 70.1178 11.985 70.3058 12.1132C70.4956 12.2414 70.8631 12.3645 71.4084 12.479C72.9075 12.7969 73.9742 13.079 74.605 13.3217C75.234 13.5662 75.7605 13.9833 76.1828 14.5747C76.605 15.1645 76.8169 15.8619 76.8169 16.6636C76.8169 17.932 76.3024 18.9593 75.2734 19.7474C74.246 20.5337 72.8956 20.9269 71.2255 20.9269C68.1708 20.9269 66.2853 19.6534 65.5691 17.1081Z" fill="#FEFEFE"/>
<path fill-rule="evenodd" clip-rule="evenodd" d="M83.684 18.0814C84.3318 18.0814 84.8002 17.7977 85.084 17.2319C85.3694 16.6661 85.5113 15.6284 85.5113 14.1242C85.5113 11.9447 84.9267 10.8541 83.7575 10.8541C82.4959 10.8541 81.8669 12.0985 81.8669 14.5823C81.8669 16.9139 82.472 18.0814 83.684 18.0814ZM83.7028 20.9276C81.9387 20.9276 80.5028 20.343 79.3916 19.1737C78.2805 18.0045 77.725 16.4404 77.725 14.4831C77.725 12.6096 78.2566 11.0626 79.3181 9.84041C80.3797 8.6199 81.8532 8.00793 83.7387 8.00793C85.484 8.00793 86.9045 8.584 88.0036 9.73443C89.1028 10.8866 89.6515 12.4216 89.6515 14.343C89.6515 16.3344 89.0976 17.9276 87.9899 19.1276C86.8822 20.3259 85.4532 20.9276 83.7028 20.9276Z" fill="#FEFEFE"/>
<path fill-rule="evenodd" clip-rule="evenodd" d="M100.063 17.659V20.7343H91.2771V8.20264H95.1233V17.659H100.063Z" fill="#FEFEFE"/>
<path fill-rule="evenodd" clip-rule="evenodd" d="M111.476 8.20227V16.5014C111.476 18.0741 111.009 19.2057 110.076 19.8946C109.143 20.5818 107.925 20.9271 106.426 20.9271C104.847 20.9271 103.578 20.5971 102.62 19.9356C101.662 19.2758 101.184 18.1971 101.184 16.7048V8.20227H105.095V16.2536C105.095 16.8553 105.221 17.2912 105.474 17.5681C105.729 17.8433 106.132 17.98 106.688 17.98C107.153 17.98 107.532 17.8809 107.828 17.6809C108.124 17.4826 108.302 17.2587 108.36 17.0057C108.416 16.7561 108.447 16.2672 108.447 15.5373V8.20227H111.476Z" fill="#FEFEFE"/>
<path fill-rule="evenodd" clip-rule="evenodd" d="M118.683 11.2036V20.7335H115.039V11.2036H112.441V8.2019H121.282V11.2036H118.683Z" fill="#FEFEFE"/>
<path fill-rule="evenodd" clip-rule="evenodd" d="M131.803 17.7407V20.7339H122.374V8.20227H131.803V11.0929H126.147V12.9117H130.72V15.6946H126.147V17.7407H131.803Z" fill="#FEFEFE"/>
<mask id="mask0" mask-type="alpha" maskUnits="userSpaceOnUse" x="41" y="8" width="129" height="13">
<path d="M41.2251 20.9276H169.709V8.00793H41.2251V20.9276Z" fill="white"/>
</mask>
<g mask="url(#mask0)">
<path fill-rule="evenodd" clip-rule="evenodd" d="M133.499 20.7345H136.988V17.384H133.499V20.7345Z" fill="#FFD666"/>
<path fill-rule="evenodd" clip-rule="evenodd" d="M142.468 17.9428H144.342C144.807 17.9428 145.147 17.8283 145.365 17.5992C145.583 17.3684 145.69 17.112 145.69 16.8231C145.69 16.536 145.586 16.2693 145.374 16.0283C145.164 15.7873 144.776 15.6659 144.213 15.6659H142.468V17.9428ZM142.468 13.0026H144.249C144.695 13.0026 145.012 12.8898 145.195 12.6642C145.379 12.4368 145.47 12.1958 145.47 11.9377C145.47 11.2402 145.042 10.8915 144.184 10.8915H142.468V13.0026ZM138.924 20.7343V8.20264H145.287C146.608 8.20264 147.572 8.53597 148.179 9.20264C148.784 9.8693 149.089 10.6317 149.089 11.4898C149.089 12.1137 148.912 12.6779 148.56 13.1821C148.208 13.6881 147.683 14.0351 146.986 14.2249C148.607 14.6163 149.418 15.589 149.418 17.1445C149.418 18.0744 149.131 18.9052 148.56 19.6368C147.988 20.3684 146.765 20.7343 144.892 20.7343H138.924Z" fill="#FFD666"/>
<path fill-rule="evenodd" clip-rule="evenodd" d="M160.436 17.7407V20.7339H151.007V8.20227H160.436V11.0929H154.78V12.9117H159.352V15.6946H154.78V17.7407H160.436Z" fill="#FFD666"/>
<path fill-rule="evenodd" clip-rule="evenodd" d="M167.111 11.2036V20.7335H163.466V11.2036H160.868V8.2019H169.709V11.2036H167.111Z" fill="#FFD666"/>
<path fill-rule="evenodd" clip-rule="evenodd" d="M49.1621 8.20227H45.0954L41.2253 20.7339H44.3484L44.6356 19.792L45.7689 15.5288H45.7552L46.051 14.4689L46.7689 11.8929L47.7826 15.5288H46.5057L45.7604 18.2655H48.4578L49.1655 20.7339H53.092L49.1621 8.20227Z" fill="#FEFEFE"/>
</g>
<path fill-rule="evenodd" clip-rule="evenodd" d="M14.9912 0H38.4503C39.5549 0 40.4503 0.89543 40.4503 2C40.4503 2.21496 40.4156 2.42852 40.3477 2.63246L33.0485 24.5298C31.9596 27.7966 28.9025 30 25.4591 30H2C0.89543 30 0 29.1046 0 28C0 27.785 0.0346557 27.5715 0.102633 27.3675L7.40176 5.47018C8.49067 2.20344 11.5478 0 14.9912 0Z" fill="#2F3346"/>
<path fill-rule="evenodd" clip-rule="evenodd" d="M28.4953 23.9808L20.3222 12.809L17.7359 7.56345L19.5293 4.05627L28.4953 23.9808Z" fill="#FFD666"/>
<path fill-rule="evenodd" clip-rule="evenodd" d="M19.0466 12.203L10.5628 23.9808L17.1999 8.60974L19.0466 12.203Z" fill="#FFD666"/>
<path fill-rule="evenodd" clip-rule="evenodd" d="M26.9929 18.3921L26.0009 16.2195L30.661 16.1802L26.9929 18.3921Z" fill="#FFD666"/>
<path fill-rule="evenodd" clip-rule="evenodd" d="M12.9167 16.2192L11.8547 18.4742L8.25655 16.1798L12.9167 16.2192Z" fill="#FFD666"/>
<path fill-rule="evenodd" clip-rule="evenodd" d="M16.0105 17.9825L19.4381 20.2318L23.0437 17.9497L24.427 19.9415L19.4233 23.1248L14.6435 19.9095L16.0105 17.9825Z" fill="#FFD666"/>
</svg>
